<mxfile host="app.diagrams.net" modified="2024-01-26T23:14:44.592Z" agent="Mozilla/5.0 (Windows NT 10.0; Win64; x64) AppleWebKit/537.36 (KHTML, like Gecko) Chrome/120.0.0.0 Safari/537.36" etag="YbpZtKd400BexJBVhhP6" version="23.0.2" type="google">
  <diagram name="‫صفحه - 1‬" id="3HpARoSKtkBtxAcSM5cw">
    <mxGraphModel grid="1" page="1" gridSize="10" guides="1" tooltips="1" connect="1" arrows="1" fold="1" pageScale="1" pageWidth="827" pageHeight="1169" math="0" shadow="0">
      <root>
        <mxCell id="0" />
        <mxCell id="1" parent="0" />
        <mxCell id="MnAHfXGvEEhWOUK97C0M-3" value="پاراف کردن نامه" style="swimlane;html=1;childLayout=stackLayout;resizeParent=1;resizeParentMax=0;horizontal=0;startSize=20;horizontalStack=0;" vertex="1" parent="1">
          <mxGeometry x="76" y="120" width="840" height="250" as="geometry" />
        </mxCell>
        <mxCell id="MnAHfXGvEEhWOUK97C0M-4" value="کاربر" style="swimlane;html=1;startSize=20;horizontal=0;" vertex="1" parent="MnAHfXGvEEhWOUK97C0M-3">
          <mxGeometry x="20" width="820" height="140" as="geometry">
            <mxRectangle x="20" width="490" height="30" as="alternateBounds" />
          </mxGeometry>
        </mxCell>
        <mxCell id="MnAHfXGvEEhWOUK97C0M-6" value="" style="ellipse;fillColor=strokeColor;html=1;" vertex="1" parent="MnAHfXGvEEhWOUK97C0M-4">
          <mxGeometry x="45" y="67" width="30" height="30" as="geometry" />
        </mxCell>
        <mxCell id="MnAHfXGvEEhWOUK97C0M-43" style="edgeStyle=orthogonalEdgeStyle;rounded=0;orthogonalLoop=1;jettySize=auto;html=1;" edge="1" parent="MnAHfXGvEEhWOUK97C0M-4" source="MnAHfXGvEEhWOUK97C0M-41" target="5kWimNwum6NwNemeysGq-2">
          <mxGeometry relative="1" as="geometry">
            <mxPoint x="384" y="82" as="targetPoint" />
          </mxGeometry>
        </mxCell>
        <mxCell id="MnAHfXGvEEhWOUK97C0M-41" value="&lt;span style=&quot;font-size: 14px;&quot;&gt;وارد کردن متن پاراف&lt;br&gt;&lt;br&gt;&lt;/span&gt;" style="html=1;align=center;verticalAlign=top;rounded=1;absoluteArcSize=1;arcSize=13;dashed=0;whiteSpace=wrap;" vertex="1" parent="MnAHfXGvEEhWOUK97C0M-4">
          <mxGeometry x="224" y="62" width="140" height="40" as="geometry" />
        </mxCell>
        <mxCell id="5kWimNwum6NwNemeysGq-2" value="&lt;font style=&quot;font-size: 14px;&quot;&gt;تایید متن پاراف&lt;/font&gt;" style="shape=mxgraph.uml25.action;html=1;align=center;verticalAlign=middle;absoluteArcSize=1;arcSize=10;dashed=0;spacingRight=10;whiteSpace=wrap;" vertex="1" parent="MnAHfXGvEEhWOUK97C0M-4">
          <mxGeometry x="394" y="60.5" width="146" height="43" as="geometry" />
        </mxCell>
        <mxCell id="MnAHfXGvEEhWOUK97C0M-38" style="edgeStyle=orthogonalEdgeStyle;rounded=0;orthogonalLoop=1;jettySize=auto;html=1;entryX=0;entryY=0.5;entryDx=0;entryDy=0;" edge="1" parent="MnAHfXGvEEhWOUK97C0M-3" source="MnAHfXGvEEhWOUK97C0M-25" target="MnAHfXGvEEhWOUK97C0M-41">
          <mxGeometry relative="1" as="geometry">
            <mxPoint x="253.39499999999998" y="99.72000000000003" as="targetPoint" />
          </mxGeometry>
        </mxCell>
        <mxCell id="MnAHfXGvEEhWOUK97C0M-23" value="سامانه" style="swimlane;html=1;startSize=20;horizontal=0;" vertex="1" parent="MnAHfXGvEEhWOUK97C0M-3">
          <mxGeometry x="20" y="140" width="820" height="110" as="geometry" />
        </mxCell>
        <mxCell id="MnAHfXGvEEhWOUK97C0M-24" value="" style="ellipse;html=1;shape=endState;fillColor=strokeColor;" vertex="1" parent="MnAHfXGvEEhWOUK97C0M-23">
          <mxGeometry x="784" y="40" width="30" height="30" as="geometry" />
        </mxCell>
        <mxCell id="MnAHfXGvEEhWOUK97C0M-25" value="&lt;font style=&quot;font-size: 14px;&quot;&gt;درخواست متن پاراف&lt;/font&gt;" style="html=1;align=center;verticalAlign=top;rounded=1;absoluteArcSize=1;arcSize=13;dashed=0;whiteSpace=wrap;" vertex="1" parent="MnAHfXGvEEhWOUK97C0M-23">
          <mxGeometry x="38" y="30" width="140" height="40" as="geometry" />
        </mxCell>
        <mxCell id="5kWimNwum6NwNemeysGq-4" style="edgeStyle=orthogonalEdgeStyle;rounded=0;orthogonalLoop=1;jettySize=auto;html=1;" edge="1" parent="MnAHfXGvEEhWOUK97C0M-23" source="5kWimNwum6NwNemeysGq-3" target="MnAHfXGvEEhWOUK97C0M-24">
          <mxGeometry relative="1" as="geometry" />
        </mxCell>
        <mxCell id="5kWimNwum6NwNemeysGq-3" value="&lt;font style=&quot;font-size: 14px;&quot;&gt;پاراف کردن متن تاییدی به نامه مورد نظر&lt;/font&gt;" style="shape=mxgraph.uml25.action;html=1;align=center;verticalAlign=middle;absoluteArcSize=1;arcSize=10;dashed=0;spacingLeft=10;flipH=1;whiteSpace=wrap;" vertex="1" parent="MnAHfXGvEEhWOUK97C0M-23">
          <mxGeometry x="584" y="30" width="150" height="50" as="geometry" />
        </mxCell>
        <mxCell id="MnAHfXGvEEhWOUK97C0M-5" style="edgeStyle=orthogonalEdgeStyle;rounded=0;orthogonalLoop=1;jettySize=auto;html=1;entryX=0.5;entryY=0;entryDx=0;entryDy=0;" edge="1" parent="MnAHfXGvEEhWOUK97C0M-3" source="MnAHfXGvEEhWOUK97C0M-6" target="MnAHfXGvEEhWOUK97C0M-25">
          <mxGeometry relative="1" as="geometry">
            <mxPoint x="128" y="82" as="targetPoint" />
            <Array as="points">
              <mxPoint x="128" y="82" />
            </Array>
          </mxGeometry>
        </mxCell>
        <mxCell id="5kWimNwum6NwNemeysGq-5" style="edgeStyle=orthogonalEdgeStyle;rounded=0;orthogonalLoop=1;jettySize=auto;html=1;" edge="1" parent="MnAHfXGvEEhWOUK97C0M-3" source="5kWimNwum6NwNemeysGq-2" target="5kWimNwum6NwNemeysGq-3">
          <mxGeometry relative="1" as="geometry">
            <Array as="points">
              <mxPoint x="584" y="82" />
              <mxPoint x="584" y="195" />
            </Array>
          </mxGeometry>
        </mxCell>
        <mxCell id="5kWimNwum6NwNemeysGq-6" value="پاراف" style="edgeLabel;html=1;align=center;verticalAlign=middle;resizable=0;points=[];" connectable="0" vertex="1" parent="5kWimNwum6NwNemeysGq-5">
          <mxGeometry x="-0.63" y="2" relative="1" as="geometry">
            <mxPoint x="-14" y="-17" as="offset" />
          </mxGeometry>
        </mxCell>
      </root>
    </mxGraphModel>
  </diagram>
</mxfile>
